<svg width="18" height="17" viewBox="0 0 18 17" fill="none" xmlns="http://www.w3.org/2000/svg">
<path d="M17.1249 15.3792L12.4049 10.8952C13.5391 9.60158 14.1047 7.94236 13.9841 6.26269C13.8634 4.58301 13.0657 3.01219 11.7569 1.87702C10.4482 0.741842 8.7291 0.129705 6.95736 0.16795C5.18562 0.206194 3.49761 0.891875 2.24448 2.08235C0.991344 3.27283 0.269575 4.87644 0.229318 6.55959C0.189061 8.24274 0.833415 9.87585 2.02834 11.1192C3.22326 12.3625 4.87675 13.1203 6.64483 13.2349C8.41291 13.3496 10.1595 12.8123 11.5211 11.7347L16.2411 16.2187L17.1249 15.3792ZM1.49989 6.71874C1.49989 5.66185 1.82979 4.62869 2.44787 3.74991C3.06596 2.87114 3.94446 2.18622 4.97229 1.78176C6.00013 1.37731 7.13113 1.27148 8.22227 1.47767C9.31341 1.68386 10.3157 2.1928 11.1024 2.94014C11.889 3.68748 12.4248 4.63964 12.6418 5.67623C12.8588 6.71281 12.7475 7.78726 12.3217 8.76371C11.896 9.74015 11.175 10.5747 10.25 11.1619C9.32495 11.7491 8.23741 12.0625 7.12489 12.0625C5.63355 12.0609 4.20377 11.4974 3.14924 10.4956C2.09471 9.4938 1.50154 8.13551 1.49989 6.71874Z" fill="black"/>
</svg>
