<svg width="26" height="26" viewBox="0 0 26 26" fill="none" xmlns="http://www.w3.org/2000/svg">
<path d="M23.2001 0.599946H2.4001C1.92816 0.595143 1.47359 0.777755 1.13614 1.10771C0.798679 1.43767 0.6059 1.88802 0.600098 2.35995V23.2439C0.606949 23.7152 0.80019 24.1645 1.13753 24.4936C1.47487 24.8227 1.92884 25.0048 2.4001 24.9999H23.2001C23.6721 25.0037 24.1263 24.8205 24.4636 24.4903C24.8009 24.1601 24.9938 23.7099 25.0001 23.2379V2.35395C24.9917 1.8834 24.7979 1.4352 24.4608 1.10676C24.1238 0.778315 23.6707 0.596182 23.2001 0.599946Z" fill="#0076B2"/>
<path d="M4.21207 9.74605H7.83407V21.4H4.21207V9.74605ZM6.02407 3.94604C6.4395 3.94605 6.84559 4.06926 7.19098 4.3001C7.53636 4.53094 7.80553 4.85903 7.96441 5.24287C8.1233 5.62671 8.16477 6.04906 8.08357 6.45647C8.00238 6.86389 7.80218 7.23807 7.50829 7.53168C7.2144 7.82529 6.84003 8.02514 6.43254 8.10594C6.02504 8.18674 5.60274 8.14487 5.21905 7.98562C4.83536 7.82637 4.50752 7.55689 4.27701 7.21129C4.0465 6.86568 3.92368 6.45947 3.92407 6.04404C3.9246 5.48744 4.14609 4.95381 4.53986 4.56041C4.93362 4.16702 5.46746 3.94604 6.02407 3.94604ZM10.1061 9.74605H13.5781V11.346H13.6261C14.1101 10.43 15.2901 9.46405 17.0521 9.46405C20.7201 9.45605 21.4001 11.87 21.4001 15V21.4H17.7781V15.73C17.7781 14.38 17.7541 12.642 15.8961 12.642C14.0381 12.642 13.7221 14.114 13.7221 15.642V21.4H10.1061V9.74605Z" fill="white"/>
</svg>
